HIERARCHY
ROOT Hips
{
	OFFSET 0.000000 97.167313 0.000000
	CHANNELS 6 Xposition Yposition Zposition Xrotation Yrotation Zrotation
	JOINT Spine
	{
		OFFSET 0.000000 13.784798 0.064400
		CHANNELS 3 Xrotation Yrotation Zrotation
		JOINT Spine1
		{
			OFFSET 0.000000 12.037903 0.404700
			CHANNELS 3 Xrotation Yrotation Zrotation
			JOINT Spine2
			{
				OFFSET 0.000000 17.795601 0.420200
				CHANNELS 3 Xrotation Yrotation Zrotation
				JOINT Neck
				{
					OFFSET 0.000000 39.131302 11.954600
					CHANNELS 3 Xrotation Yrotation Zrotation
					JOINT Head
					{
						OFFSET 0.000000 14.456192 15.627699
						CHANNELS 3 Xrotation Yrotation Zrotation
						JOINT HeadTop_End
						{
							OFFSET 0.000000 15.703506 7.603401
							CHANNELS 3 Xrotation Yrotation Zrotation
							End Site
							{
								OFFSET 0.000000 17.447403 0.000000
							}
						}
					}
				}
				JOINT LeftShoulder
				{
					OFFSET 17.399500 24.608795 1.168800
					CHANNELS 3 Xrotation Yrotation Zrotation
					JOINT LeftArm
					{
						OFFSET 18.980635 5.765305 1.818600
						CHANNELS 3 Xrotation Yrotation Zrotation
						JOINT LeftForeArm
						{
							OFFSET 49.290169 0.000000 0.000000
							CHANNELS 3 Xrotation Yrotation Zrotation
							JOINT LeftHand
							{
								OFFSET 31.562012 0.000000 0.000000
								CHANNELS 3 Xrotation Yrotation Zrotation
								JOINT LeftHandThumb1
								{
									OFFSET 6.133995 -4.388519 7.076070
									CHANNELS 3 Xrotation Yrotation Zrotation
									JOINT LeftHandThumb2
									{
										OFFSET 6.037666 -3.485840 3.485847
										CHANNELS 3 Xrotation Yrotation Zrotation
										JOINT LeftHandThumb3
										{
											OFFSET 6.496506 -3.750763 3.750761
											CHANNELS 3 Xrotation Yrotation Zrotation
											JOINT LeftHandThumb4
											{
												OFFSET 5.616882 -3.242905 3.242910
												CHANNELS 3 Xrotation Yrotation Zrotation
												End Site
												{
													OFFSET -1.254608 7.132141 0.375429
												}
											}
										}
									}
								}
								JOINT LeftHandPinky1
								{
									OFFSET 18.920792 -0.453171 -11.426712
									CHANNELS 3 Xrotation Yrotation Zrotation
									JOINT LeftHandPinky2
									{
										OFFSET 4.919586 0.000000 0.000000
										CHANNELS 3 Xrotation Yrotation Zrotation
										JOINT LeftHandPinky3
										{
											OFFSET 5.233047 0.000000 0.000000
											CHANNELS 3 Xrotation Yrotation Zrotation
											JOINT LeftHandPinky4
											{
												OFFSET 5.571716 0.000000 0.000000
												CHANNELS 3 Xrotation Yrotation Zrotation
												End Site
												{
													OFFSET -3.459808 4.342407 -0.466164
												}
											}
										}
									}
								}
								JOINT LeftHandRing1
								{
									OFFSET 22.726120 -0.094986 -6.500475
									CHANNELS 3 Xrotation Yrotation Zrotation
									JOINT LeftHandRing2
									{
										OFFSET 6.408615 0.000000 0.000000
										CHANNELS 3 Xrotation Yrotation Zrotation
										JOINT LeftHandRing3
										{
											OFFSET 6.150223 0.000000 0.000000
											CHANNELS 3 Xrotation Yrotation Zrotation
											JOINT LeftHandRing4
											{
												OFFSET 6.145386 0.000000 0.000000
												CHANNELS 3 Xrotation Yrotation Zrotation
												End Site
												{
													OFFSET -3.671402 4.923981 -0.202372
												}
											}
										}
									}
								}
								JOINT LeftHandMiddle1
								{
									OFFSET 23.373947 0.000000 0.000001
									CHANNELS 3 Xrotation Yrotation Zrotation
									JOINT LeftHandMiddle2
									{
										OFFSET 6.996567 0.000000 0.000000
										CHANNELS 3 Xrotation Yrotation Zrotation
										JOINT LeftHandMiddle3
										{
											OFFSET 7.015945 0.000000 0.000000
											CHANNELS 3 Xrotation Yrotation Zrotation
											JOINT LeftHandMiddle4
											{
												OFFSET 7.721573 0.000000 0.000000
												CHANNELS 3 Xrotation Yrotation Zrotation
												End Site
												{
													OFFSET -4.651108 6.158463 0.251582
												}
											}
										}
									}
								}
								JOINT LeftHandIndex1
								{
									OFFSET 21.310577 -0.490082 6.209344
									CHANNELS 3 Xrotation Yrotation Zrotation
									JOINT LeftHandIndex2
									{
										OFFSET 7.536453 0.000000 0.000000
										CHANNELS 3 Xrotation Yrotation Zrotation
										JOINT LeftHandIndex3
										{
											OFFSET 7.512344 0.000000 0.000000
											CHANNELS 3 Xrotation Yrotation Zrotation
											JOINT LeftHandIndex4
											{
												OFFSET 10.212402 0.000000 0.000001
												CHANNELS 3 Xrotation Yrotation Zrotation
												End Site
												{
													OFFSET -5.180801 8.690506 1.388433
												}
											}
										}
									}
								}
							}
						}
					}
				}
				JOINT RightShoulder
				{
					OFFSET -17.399500 24.608795 1.168800
					CHANNELS 3 Xrotation Yrotation Zrotation
					JOINT RightArm
					{
						OFFSET -18.980635 5.765305 1.818600
						CHANNELS 3 Xrotation Yrotation Zrotation
						JOINT RightForeArm
						{
							OFFSET -49.290169 0.000000 0.000000
							CHANNELS 3 Xrotation Yrotation Zrotation
							JOINT RightHand
							{
								OFFSET -31.562012 0.000000 0.000000
								CHANNELS 3 Xrotation Yrotation Zrotation
								JOINT RightHandThumb1
								{
									OFFSET -6.133995 -4.388519 7.076070
									CHANNELS 3 Xrotation Yrotation Zrotation
									JOINT RightHandThumb2
									{
										OFFSET -6.037666 -3.485840 3.485847
										CHANNELS 3 Xrotation Yrotation Zrotation
										JOINT RightHandThumb3
										{
											OFFSET -6.496506 -3.750763 3.750761
											CHANNELS 3 Xrotation Yrotation Zrotation
											JOINT RightHandThumb4
											{
												OFFSET -5.616882 -3.242905 3.242910
												CHANNELS 3 Xrotation Yrotation Zrotation
												End Site
												{
													OFFSET 1.254608 7.132141 0.375429
												}
											}
										}
									}
								}
								JOINT RightHandIndex1
								{
									OFFSET -21.310577 -0.490082 6.209344
									CHANNELS 3 Xrotation Yrotation Zrotation
									JOINT RightHandIndex2
									{
										OFFSET -7.536453 0.000000 0.000000
										CHANNELS 3 Xrotation Yrotation Zrotation
										JOINT RightHandIndex3
										{
											OFFSET -7.512344 0.000000 0.000000
											CHANNELS 3 Xrotation Yrotation Zrotation
											JOINT RightHandIndex4
											{
												OFFSET -10.212402 0.000000 0.000001
												CHANNELS 3 Xrotation Yrotation Zrotation
												End Site
												{
													OFFSET 5.180801 8.690506 1.388433
												}
											}
										}
									}
								}
								JOINT RightHandMiddle1
								{
									OFFSET -23.373947 0.000000 0.000001
									CHANNELS 3 Xrotation Yrotation Zrotation
									JOINT RightHandMiddle2
									{
										OFFSET -6.996567 0.000000 0.000000
										CHANNELS 3 Xrotation Yrotation Zrotation
										JOINT RightHandMiddle3
										{
											OFFSET -7.015945 0.000000 0.000000
											CHANNELS 3 Xrotation Yrotation Zrotation
											JOINT RightHandMiddle4
											{
												OFFSET -7.721573 0.000000 0.000000
												CHANNELS 3 Xrotation Yrotation Zrotation
												End Site
												{
													OFFSET 4.651108 6.158463 0.251582
												}
											}
										}
									}
								}
								JOINT RightHandRing1
								{
									OFFSET -22.726120 -0.094986 -6.500475
									CHANNELS 3 Xrotation Yrotation Zrotation
									JOINT RightHandRing2
									{
										OFFSET -6.408615 0.000000 0.000000
										CHANNELS 3 Xrotation Yrotation Zrotation
										JOINT RightHandRing3
										{
											OFFSET -6.150223 0.000000 0.000000
											CHANNELS 3 Xrotation Yrotation Zrotation
											JOINT RightHandRing4
											{
												OFFSET -6.145386 0.000000 0.000000
												CHANNELS 3 Xrotation Yrotation Zrotation
												End Site
												{
													OFFSET 3.671402 4.923981 -0.202372
												}
											}
										}
									}
								}
								JOINT RightHandPinky1
								{
									OFFSET -18.920792 -0.453171 -11.426712
									CHANNELS 3 Xrotation Yrotation Zrotation
									JOINT RightHandPinky2
									{
										OFFSET -4.919586 0.000000 0.000000
										CHANNELS 3 Xrotation Yrotation Zrotation
										JOINT RightHandPinky3
										{
											OFFSET -5.233047 0.000000 0.000000
											CHANNELS 3 Xrotation Yrotation Zrotation
											JOINT RightHandPinky4
											{
												OFFSET -5.571716 0.000000 0.000000
												CHANNELS 3 Xrotation Yrotation Zrotation
												End Site
												{
													OFFSET 3.459808 4.342407 -0.466164
												}
											}
										}
									}
								}
							}
						}
					}
				}
			}
		}
	}
	JOINT LeftUpLeg
	{
		OFFSET 19.899099 -7.885101 -3.429500
		CHANNELS 3 Xrotation Yrotation Zrotation
		JOINT LeftLeg
		{
			OFFSET 1.745560 -36.997807 10.304700
			CHANNELS 3 Xrotation Yrotation Zrotation
			JOINT LeftFoot
			{
				OFFSET -1.745558 -29.803308 -13.615400
				CHANNELS 3 Xrotation Yrotation Zrotation
				JOINT LeftToeBase
				{
					OFFSET 1.181900 -18.539904 15.226099
					CHANNELS 3 Xrotation Yrotation Zrotation
					JOINT LeftToe_End
					{
						OFFSET -0.863701 1.402801 16.534700
						CHANNELS 3 Xrotation Yrotation Zrotation
						End Site
						{
							OFFSET 0.000000 16.616566 0.000000
						}
					}
				}
			}
		}
	}
	JOINT RightUpLeg
	{
		OFFSET -19.899099 -7.885101 -3.429500
		CHANNELS 3 Xrotation Yrotation Zrotation
		JOINT RightLeg
		{
			OFFSET -1.745560 -36.997807 10.304700
			CHANNELS 3 Xrotation Yrotation Zrotation
			JOINT RightFoot
			{
				OFFSET 1.745558 -29.803308 -13.615400
				CHANNELS 3 Xrotation Yrotation Zrotation
				JOINT RightToeBase
				{
					OFFSET -1.181900 -18.539904 15.226099
					CHANNELS 3 Xrotation Yrotation Zrotation
					JOINT RightToe_End
					{
						OFFSET 0.863701 1.402801 16.534700
						CHANNELS 3 Xrotation Yrotation Zrotation
						End Site
						{
							OFFSET 0.000000 16.616566 0.000000
						}
					}
				}
			}
		}
	}
}
MOTION
Frames: 5
Frame Time: 0.033333
1.282758 89.021606 3.109556 8.357810 3.194243 3.755817 10.940793 -0.239741 -1.112625 2.146744 -0.031529 -0.478931 2.146501 -0.023078 -0.481559 3.259959 -0.028764 -0.091368 20.020309 -0.089290 -1.023070 0.000002 0.000000 0.000000 0.742825 8.952360 -13.053728 10.737600 -6.254790 -54.002611 0.000007 -32.994264 0.000006 3.018197 -1.471487 -4.081435 -3.917856 -5.161459 8.892408 21.372774 38.839809 0.020869 -0.475013 -2.422449 17.056975 0.000001 -0.000000 -0.000001 2.297559 7.098878 -41.286605 3.978839 5.544423 -71.308036 0.000002 -0.000580 0.005644 -0.000000 0.000004 -0.000005 2.297610 7.098946 -41.286615 3.978841 5.544421 -71.308022 0.000001 -0.000574 0.005643 -0.000002 0.000001 -0.000002 2.297558 7.098892 -41.286605 3.978834 5.544423 -71.308029 0.000000 -0.000576 0.005650 -0.000001 -0.000000 0.000001 1.070388 5.654749 -31.106474 2.579640 4.853693 -55.959030 -0.000003 -0.001539 0.014974 -0.000003 0.000001 -0.000001 1.078070 -8.352868 11.371668 3.407878 18.890949 61.317299 -0.000003 23.538792 0.000004 1.182693 -2.960230 -1.406665 -4.704647 7.165780 -8.305812 21.726741 -40.852881 0.039797 0.960350 -3.700276 -18.695734 0.000003 -0.000004 -0.000000 0.850711 -4.913046 30.449308 2.055557 -3.864071 56.009959 0.000003 0.001226 -0.015020 0.000000 0.000000 0.000001 1.937111 -6.200609 40.635346 3.168679 -4.413387 71.341353 -0.000006 0.000457 -0.005660 0.000000 -0.000000 -0.000004 1.937109 -6.200612 40.635357 3.168688 -4.413390 71.341353 0.000003 0.000464 -0.005653 0.000003 0.000001 -0.000003 1.937116 -6.200601 40.635350 3.168684 -4.413392 71.341360 -0.000000 0.000462 -0.005657 0.000000 -0.000002 0.000005 -16.996893 4.777512 1.868978 25.060055 -4.612308 -1.526932 -11.195585 0.360264 -2.581851 -7.686735 -0.000003 0.000000 -0.000000 -0.000000 0.000000 -22.528998 -8.800471 -1.884366 30.563703 0.248463 3.086050 -16.523594 1.616925 -7.252531 -5.441999 0.000002 -0.000002 0.000000 -0.000000 0.000000 
3.161601 87.257660 3.922755 7.666866 -0.260834 3.914325 10.910849 -0.521316 -1.568972 2.137100 -0.408857 -1.432337 2.393319 -0.011084 -0.434417 3.650058 0.171048 -0.267950 19.929505 1.847772 -2.545485 0.000001 -0.000000 0.000000 0.782779 9.323703 -13.247374 14.150654 -4.578905 -54.735405 0.000007 -34.316281 -0.000006 2.875648 -0.621296 -5.172860 -3.979612 -5.433955 8.778394 20.936722 37.348280 0.061101 -0.475009 -2.422450 17.056977 0.000000 0.000001 -0.000001 2.159042 6.990529 -39.594695 3.796068 5.479494 -69.405377 0.006690 0.280152 -2.734905 -0.000001 0.000004 -0.000005 2.339891 7.129589 -41.833003 3.719890 5.450377 -68.605480 0.005970 0.264670 -2.583667 -0.000000 0.000000 0.000005 2.297562 7.098893 -41.286602 3.814860 5.486482 -69.602073 0.000593 0.083243 -0.812380 -0.000000 0.000000 0.000004 1.070387 5.654744 -31.106474 2.579639 4.853693 -55.959033 -0.000003 -0.001542 0.014981 -0.000000 0.000005 0.000000 1.061243 -8.082536 11.377803 2.892435 20.198138 60.528208 0.000000 24.595991 -0.000010 1.810591 -3.689807 -0.677804 -4.704651 7.165781 -8.305811 21.726741 -40.852881 0.039794 0.960350 -3.700277 -18.695737 0.000002 -0.000001 0.000003 0.803493 -4.842679 29.408660 2.055557 -3.864072 56.009962 -0.000002 0.001226 -0.015017 -0.000003 -0.000003 -0.000001 1.869333 -6.152085 39.639334 3.168677 -4.413385 71.341346 0.026619 -0.497758 6.122118 -0.000002 0.000004 -0.000004 1.829235 -6.122527 39.044305 3.168688 -4.413389 71.341346 0.022907 -0.461789 5.678262 0.000000 -0.000001 -0.000002 1.848687 -6.136936 39.333485 3.168684 -4.413395 71.341360 0.028075 -0.511104 6.286840 0.000003 0.000002 0.000001 -15.912340 6.207138 0.651849 30.370409 -2.670004 -1.064903 -16.659350 0.696599 -1.669017 -7.686735 -0.000003 0.000000 -0.000000 0.000000 0.000000 -33.854871 -6.551016 -4.085648 43.730624 -0.059550 3.021190 -1.802570 2.749494 -6.648841 -16.562966 0.012272 -0.261347 -0.000000 -0.000000 -0.000000 
3.943650 84.555199 5.103256 7.041995 -3.467801 3.700649 11.259638 -1.109260 -1.972941 2.234969 -0.902767 -2.489341 2.667463 -0.103503 -0.377918 3.724930 0.385601 -0.412325 19.491039 3.550676 -3.297578 0.000001 0.000000 -0.000000 0.820246 9.448867 -13.442757 16.293937 -4.237052 -55.044635 0.000010 -34.510005 -0.000033 2.786013 -0.642662 -6.638628 -4.003416 -5.532374 8.736353 20.783026 36.806858 0.069516 -0.475010 -2.422447 17.056978 -0.000000 -0.000000 -0.000003 1.912198 6.780117 -36.474013 3.464912 5.343949 -65.895193 0.054226 0.796099 -7.793066 0.000003 0.000000 -0.000006 2.412982 7.179142 -42.841692 3.254964 5.245374 -63.620275 0.048414 0.752380 -7.362655 -0.000002 0.000000 0.000005 2.297560 7.098887 -41.286602 3.517120 5.366899 -66.454599 0.004817 0.237889 -2.322083 -0.000001 0.000001 0.000004 1.070387 5.654746 -31.106474 2.579635 4.853693 -55.959030 0.000001 -0.001533 0.014982 0.000002 0.000001 -0.000001 0.985027 -7.717909 11.109153 1.588859 21.064756 60.664026 0.000002 25.428477 0.000004 2.416007 -3.642787 -0.794370 -4.704649 7.165779 -8.305816 21.726738 -40.852881 0.039798 0.960348 -3.700281 -18.695730 -0.000000 -0.000002 0.000001 0.752447 -4.763355 28.250074 2.055557 -3.864071 56.009955 0.000002 0.001222 -0.015020 0.000003 -0.000002 0.000006 1.794865 -6.096681 38.530477 3.168677 -4.413388 71.341353 0.118640 -1.045578 12.946466 0.000003 0.000002 -0.000004 1.711757 -6.032131 37.273118 3.168687 -4.413387 71.341353 0.102126 -0.970973 12.008145 0.000001 0.000001 -0.000003 1.751981 -6.063712 37.884187 3.168678 -4.413392 71.341353 0.125076 -1.073202 13.294668 0.000000 -0.000001 -0.000001 -15.226619 7.283196 1.077478 37.292618 -0.861254 -1.302274 -23.536349 0.733072 -1.758971 -7.686735 -0.000002 0.000000 -0.000000 -0.000000 0.000000 -47.487870 -3.676570 -4.351126 52.197214 6.927374 3.590185 13.330977 0.681276 -3.658155 -20.839290 1.158432 -4.322046 -0.000000 0.000000 -0.000000 
4.117856 82.889992 6.136650 6.205026 -4.922581 3.156388 11.776687 -1.563123 -2.037104 2.404166 -1.395102 -3.598088 2.954948 -0.195916 -0.376051 3.605123 0.505277 -0.429537 19.002782 4.422709 -3.082748 0.000000 0.000000 0.000000 0.826790 9.135074 -13.514702 16.067950 -4.500155 -54.672307 0.000008 -33.193572 0.000008 4.075742 -0.794487 -8.185766 -3.992387 -5.478506 8.757909 20.859085 37.100676 0.067354 -0.475011 -2.422452 17.056975 0.000002 0.000001 -0.000002 1.585235 6.462017 -32.085411 3.014364 5.119520 -60.957205 0.197789 1.510897 -14.915123 0.000001 -0.000003 -0.000003 2.516012 7.246068 -44.261808 2.634876 4.890418 -56.609383 0.176654 1.429223 -14.091398 -0.000001 0.000001 0.000005 2.297557 7.098888 -41.286605 3.110272 5.171412 -62.026553 0.017674 0.455261 -4.447156 -0.000001 -0.000002 0.000002 1.070385 5.654747 -31.106474 2.579632 4.853693 -55.959033 0.000003 -0.001540 0.014976 -0.000002 0.000001 0.000001 0.939318 -7.474103 10.946805 -0.340776 21.017745 61.544540 0.000016 25.759659 -0.000013 2.779379 -3.097547 -1.809560 -4.704649 7.165779 -8.305811 21.726748 -40.852881 0.039795 0.960353 -3.700280 -18.695737 -0.000000 -0.000001 -0.000000 0.700682 -4.679100 27.035709 2.055560 -3.864071 56.009962 -0.000003 0.001226 -0.015012 -0.000004 -0.000003 -0.000001 1.717995 -6.037075 37.368218 3.168675 -4.413387 71.341353 0.284300 -1.603828 20.103014 -0.000001 -0.000001 -0.000007 1.591707 -5.933521 35.416942 3.168686 -4.413388 71.341353 0.244942 -1.491927 18.645841 0.000001 0.000001 -0.000003 1.652644 -5.984370 36.365252 3.168681 -4.413394 71.341360 0.299627 -1.645092 20.643769 -0.000001 -0.000001 0.000000 -14.009414 7.739163 1.992143 41.290382 -0.206069 -1.665312 -27.911609 0.602487 -2.047077 -7.686735 -0.000002 0.000000 0.000000 -0.000000 -0.000000 -55.834447 -1.637129 -2.998615 51.730808 6.546210 3.011646 16.004293 0.466677 -4.025930 -7.389037 0.392198 -1.571922 -0.000001 0.000000 -0.000000 
4.496369 82.503166 6.695477 6.503713 -5.710535 2.498205 12.136230 -1.478005 -1.611298 2.538144 -1.762765 -4.680530 3.234352 -0.183605 -0.468406 3.518936 0.513563 -0.358221 18.742285 4.596010 -2.481004 0.000002 -0.000000 -0.000000 0.815097 8.522823 -13.511865 13.581947 -4.288623 -54.125803 0.000004 -30.918115 -0.000008 6.230149 -0.670961 -9.125087 -3.963444 -5.347002 8.812016 21.055486 37.820048 0.055666 -0.475014 -2.422456 17.056975 0.000001 -0.000002 -0.000003 1.254386 6.083467 -27.249542 2.542105 4.828221 -55.514275 0.457692 2.271945 -22.777154 -0.000000 0.000002 -0.000002 2.631138 7.317507 -45.828705 2.007364 4.414754 -48.884914 0.409116 2.152683 -21.518752 0.000000 0.000000 0.000003 2.297558 7.098890 -41.286605 2.680695 4.920203 -57.145252 0.041195 0.694318 -6.791569 0.000001 0.000001 0.000006 1.070385 5.654741 -31.106471 2.579633 4.853689 -55.959033 0.000003 -0.001542 0.014983 -0.000001 -0.000000 -0.000003 0.960148 -7.359049 11.091586 -2.319066 20.428204 62.505902 -0.000002 25.340683 0.000010 3.247885 -2.704604 -2.709691 -4.704648 7.165778 -8.305817 21.726736 -40.852881 0.039796 0.960354 -3.700278 -18.695737 -0.000000 -0.000002 0.000001 0.652206 -4.596373 25.858372 2.055560 -3.864071 56.009959 -0.000000 0.001226 -0.015014 0.000001 -0.000001 0.000001 1.644634 -5.977794 36.241438 3.168674 -4.413389 71.341353 0.510257 -2.121381 27.046400 -0.000000 0.000000 -0.000004 1.478437 -5.834255 33.617494 3.168685 -4.413389 71.341346 0.440125 -1.978070 25.085408 0.000000 0.000001 -0.000003 1.558382 -5.904950 34.892646 3.168679 -4.413391 71.341353 0.537535 -2.173932 27.774174 -0.000001 0.000002 0.000001 -13.837186 7.785418 2.597124 42.409222 0.473365 -1.905471 -29.543102 0.463193 -2.142531 -7.686735 -0.000002 0.000000 -0.000000 0.000000 0.000000 -61.409561 -0.171609 -2.926293 44.137857 3.429360 2.773120 12.907109 0.296294 -2.384413 9.991600 -0.000002 -0.000000 -0.000001 -0.000000 0.000000 
